Coordinates
version=1
nRows=17
nColumns=38
inDegrees=no

Units are S.I. units (second, meters, Newtons, ...)
If the header above contains a line with 'inDegrees', this indicates whether rotational values are in degrees (yes) or radians (no).

endheader
time	pelvis_tilt	pelvis_list	pelvis_rotation	pelvis_tx	pelvis_ty	pelvis_tz	hip_flexion_r	hip_adduction_r	hip_rotation_r	knee_angle_r	ankle_angle_r	subtalar_angle_r	mtp_angle_r	hip_flexion_l	hip_adduction_l	hip_rotation_l	knee_angle_l	ankle_angle_l	subtalar_angle_l	mtp_angle_l	lumbar_extension	lumbar_bending	lumbar_rotation	arm_flex_r	arm_add_r	arm_rot_r	elbow_flex_r	pro_sup_r	wrist_flex_r	wrist_dev_r	arm_flex_l	arm_add_l	arm_rot_l	elbow_flex_l	pro_sup_l	wrist_flex_l	wrist_dev_l
15	-0.174389	1.30869	1.72701	0.643125	0.24244	0.89665	0.923251	-0.111625	0.0161657	1.07718	-0.103371	0	0	0.802203	-0.148048	-0.197471	1.04548	-0.0792276	0	0	-0.902822	-0.0250709	0.0215593	1.04133	-0.620644	0.740043	0.767025	0.389007	0	0	1.10627	-0.560158	0.683762	0.800417	0.766586	0	0
15.01	-0.178418	1.2983	1.72997	0.643039	0.240305	0.891835	0.946482	-0.11401	0.0188136	1.09278	-0.0997755	0	0	0.825422	-0.146159	-0.193007	1.06387	-0.0740662	0	0	-0.908588	-0.0307056	0.0191233	1.05451	-0.620786	0.712141	0.77519	0.39906	0	0	1.13039	-0.564072	0.683184	0.809337	0.761684	0	0
15.02	-0.183462	1.28708	1.73351	0.643035	0.238176	0.886949	0.970368	-0.115873	0.0226063	1.10785	-0.0963261	0	0	0.848981	-0.144474	-0.189717	1.08148	-0.0697996	0	0	-0.913036	-0.0371379	0.0164091	1.06551	-0.620445	0.681569	0.785284	0.41065	0	0	1.15359	-0.56784	0.682255	0.819496	0.755062	0	0
15.03	-0.187535	1.27632	1.7358	0.643069	0.2361	0.882143	0.993582	-0.117148	0.0265428	1.12276	-0.0933089	0	0	0.871645	-0.143782	-0.187432	1.09864	-0.0660701	0	0	-0.917328	-0.0434429	0.0139523	1.07601	-0.62016	0.652021	0.79693	0.420457	0	0	1.17596	-0.571233	0.680221	0.830609	0.745804	0	0
15.04	-0.188631	1.26602	1.73527	0.643035	0.234045	0.877446	1.01602	-0.117818	0.0299951	1.13725	-0.0905201	0	0	0.89384	-0.144005	-0.18501	1.11539	-0.0624624	0	0	-0.921433	-0.0485505	0.0122763	1.08482	-0.619807	0.619445	0.810999	0.432983	0	0	1.19765	-0.574145	0.677848	0.842374	0.735478	0	0
15.05	-0.186962	1.25648	1.73209	0.642872	0.232036	0.872911	1.03726	-0.11808	0.0326855	1.15109	-0.0881518	0	0	0.915042	-0.144804	-0.182172	1.13137	-0.0587152	0	0	-0.925686	-0.0520764	0.0118568	1.09183	-0.619689	0.58323	0.827795	0.452174	0	0	1.21801	-0.575923	0.674398	0.854098	0.728008	0	0
15.06	-0.184289	1.24761	1.72792	0.642549	0.230064	0.868572	1.05714	-0.11825	0.0350238	1.16362	-0.0864201	0	0	0.93508	-0.145827	-0.179905	1.14641	-0.0550396	0	0	-0.929862	-0.0544784	0.0121532	1.09984	-0.620855	0.551871	0.845459	0.473271	0	0	1.23716	-0.576795	0.669573	0.865321	0.722689	0	0
15.07	-0.181324	1.2357	1.72392	0.642214	0.228188	0.86406	1.0801	-0.11887	0.0374945	1.17587	-0.0846386	0	0	0.958048	-0.145925	-0.177339	1.16086	-0.050518	0	0	-0.93017	-0.0569091	0.0127586	1.10113	-0.618766	0.506138	0.86404	0.535788	0	0	1.25375	-0.575799	0.661142	0.876195	0.724896	0	0
15.08	-0.179705	1.22607	1.72144	0.641866	0.226368	0.859917	1.10001	-0.119842	0.0393594	1.18724	-0.0830699	0	0	0.977989	-0.146	-0.175626	1.17463	-0.0469213	0	0	-0.932156	-0.0589518	0.0127471	1.10935	-0.620882	0.482759	0.881359	0.559101	0	0	1.27038	-0.575198	0.654513	0.886668	0.727643	0	0
15.09	-0.178937	1.2171	1.71979	0.641591	0.22457	0.855948	1.11862	-0.120497	0.0415165	1.1977	-0.0812828	0	0	0.996921	-0.145992	-0.174125	1.18798	-0.0442913	0	0	-0.934256	-0.0613889	0.0125555	1.11883	-0.624001	0.465663	0.897759	0.575171	0	0	1.28711	-0.574652	0.649832	0.896883	0.729476	0	0
15.1	-0.178824	1.21154	1.71868	0.641405	0.222817	0.852405	1.13285	-0.12071	0.0431823	1.20724	-0.0803893	0	0	1.01188	-0.146904	-0.173344	1.2009	-0.0424441	0	0	-0.939554	-0.0637865	0.0119528	1.13337	-0.629676	0.462696	0.912767	0.564132	0	0	1.30476	-0.575187	0.648229	0.907226	0.726675	0	0
15.11	-0.177692	1.20325	1.7168	0.641269	0.22109	0.848618	1.14993	-0.120567	0.0453564	1.21683	-0.0784269	0	0	1.03008	-0.147849	-0.172183	1.21389	-0.0413058	0	0	-0.941603	-0.0666349	0.01181	1.14209	-0.633178	0.448541	0.929399	0.577751	0	0	1.32056	-0.574493	0.644778	0.918368	0.725908	0	0
15.12	-0.1766	1.19633	1.71466	0.641145	0.219392	0.845035	1.1652	-0.119898	0.0476375	1.22603	-0.0768113	0	0	1.04658	-0.149649	-0.171607	1.22654	-0.040388	0	0	-0.945023	-0.0697834	0.0112112	1.15275	-0.637124	0.439751	0.945476	0.583554	0	0	1.33672	-0.575683	0.643844	0.931496	0.721467	0	0
15.13	-0.174973	1.18904	1.71159	0.641032	0.217737	0.841435	1.181	-0.118703	0.0500008	1.23541	-0.0750239	0	0	1.06322	-0.151803	-0.170767	1.23892	-0.0390409	0	0	-0.947939	-0.0735046	0.0106035	1.16227	-0.641061	0.430252	0.96269	0.587401	0	0	1.35207	-0.577966	0.643604	0.946948	0.714036	0	0
15.14	-0.173361	1.1823	1.70809	0.640893	0.216156	0.837878	1.19633	-0.117298	0.0521104	1.24491	-0.0733705	0	0	1.07868	-0.154029	-0.169793	1.25071	-0.0369632	0	0	-0.950986	-0.0776377	0.0099087	1.17119	-0.644938	0.421075	0.980264	0.590453	0	0	1.36667	-0.580787	0.643776	0.963628	0.704347	0	0
15.15	-0.17175	1.17621	1.70436	0.6407	0.214633	0.83433	1.21102	-0.115828	0.0541735	1.25442	-0.0720762	0	0	1.09305	-0.15596	-0.168472	1.26212	-0.0339504	0	0	-0.954077	-0.081835	0.00926326	1.17974	-0.649316	0.413536	0.998181	0.594302	0	0	1.38056	-0.58388	0.644401	0.980964	0.693335	0	0
15.16	-0.16992	1.17052	1.70055	0.640472	0.213138	0.830758	1.22529	-0.114374	0.0560479	1.26398	-0.0708785	0	0	1.10705	-0.157651	-0.166857	1.27357	-0.0304709	0	0	-0.957003	-0.085646	0.00883018	1.18797	-0.654362	0.407159	1.01608	0.598334	0	0	1.39381	-0.586992	0.645427	0.998471	0.682196	0	0
